<svg id="Layer_1" data-name="Layer 1" xmlns="http://www.w3.org/2000/svg" viewBox="0 0 285.53 126.67"><defs><style>.cls-1{fill:none;}.cls-2{fill:#231f20;}</style></defs><title>packagedroid-logo</title><rect class="cls-1" x="12.97" y="11.56" width="16.68" height="15.44"/><rect class="cls-1" x="253.99" y="99.67" width="18.57" height="15.44"/><polygon class="cls-1" points="84.69 99.67 84.69 105.81 29.65 105.81 29.65 99.67 12.97 99.67 12.97 115.11 198.95 115.11 198.95 99.67 84.69 99.67"/><path d="M272.56,11.56V27h10V7.56a6,6,0,0,0-6-6H84.69v10Z"/><path d="M13,11.56H29.65v-10H9a6,6,0,0,0-6,6V27H13Z"/><path d="M272.56,115.11H254v10h22.57a6,6,0,0,0,6-6V99.67h-10Z"/><path d="M13,115.11V99.67H3v19.44a6,6,0,0,0,6,6H199v-10Z"/><path class="cls-2" d="M2.75,43.27H9.2v42.6H2.75ZM6,63.22H13.8a3.23,3.23,0,0,0,1.76-.47,3,3,0,0,0,1.12-1.35,5,5,0,0,0,.4-2.13V53.49a5.81,5.81,0,0,0-.38-2.22,2.91,2.91,0,0,0-1.13-1.39,3.14,3.14,0,0,0-1.77-.49H6V43.27h7.85a11.38,11.38,0,0,1,5.26,1.13,7.74,7.74,0,0,1,3.34,3.31,11,11,0,0,1,1.15,5.23v6.94A10.43,10.43,0,0,1,22.44,65a7.76,7.76,0,0,1-3.35,3.24,11.44,11.44,0,0,1-5.23,1.11H6Z"/><path class="cls-2" d="M34.31,43.27H39.4l10,42.6H42.83L36.86,55l-6,30.91H24.29Zm-3.4,28.62H43v6H30.91Z"/><path class="cls-2" d="M55.2,85a8.49,8.49,0,0,1-3.46-3.72,13.14,13.14,0,0,1-1.2-5.86V53.73a13.19,13.19,0,0,1,1.2-5.89,8.49,8.49,0,0,1,3.46-3.72,10.74,10.74,0,0,1,5.42-1.29,10.89,10.89,0,0,1,5.44,1.28,8.23,8.23,0,0,1,3.45,3.73,13.45,13.45,0,0,1,1.18,5.89v2.61h-6.5V53.73a6.57,6.57,0,0,0-.41-2.43,3.22,3.22,0,0,0-1.22-1.56,3.45,3.45,0,0,0-1.94-.52,3.37,3.37,0,0,0-1.91.52,3.47,3.47,0,0,0-1.23,1.54A6.2,6.2,0,0,0,57,53.73V75.44a6,6,0,0,0,.44,2.43,3.55,3.55,0,0,0,5.1,1.51,3.33,3.33,0,0,0,1.2-1.54,6.43,6.43,0,0,0,.41-2.43V72.8h6.5v2.61a13.92,13.92,0,0,1-1.2,5.89A8.2,8.2,0,0,1,66.05,85a10.93,10.93,0,0,1-5.43,1.28A10.74,10.74,0,0,1,55.2,85Z"/><path class="cls-2" d="M75,43.27h6.44v42.6H75Zm5.1,23.32,9.69-23.32H97L79.86,78.51Zm3.48-3.72L88,58.5,98.35,85.87H91.2Z"/><path class="cls-2" d="M108.6,43.27h5.1l10,42.6h-6.59l-6-30.91-6,30.91h-6.6Zm-3.39,28.62h12.12v6H105.21Z"/><path class="cls-2" d="M145.81,62.9V75.5a12.68,12.68,0,0,1-1.23,5.81A8.62,8.62,0,0,1,141,85a11.4,11.4,0,0,1-5.61,1.29,12.31,12.31,0,0,1-5.68-1.22,8.36,8.36,0,0,1-3.64-3.54A11.61,11.61,0,0,1,124.83,76V53.79a13.11,13.11,0,0,1,1.23-5.92,8.61,8.61,0,0,1,3.56-3.75,12.78,12.78,0,0,1,11.11,0,8.22,8.22,0,0,1,3.5,3.64,13,13,0,0,1,1.23,5.75v2.69h-6.71V53.47a5.84,5.84,0,0,0-.41-2.3,3,3,0,0,0-1.2-1.45,3.44,3.44,0,0,0-1.91-.5,3.9,3.9,0,0,0-2.1.54,3.42,3.42,0,0,0-1.35,1.57,5.9,5.9,0,0,0-.47,2.46V76a4.4,4.4,0,0,0,.48,2.1,3.14,3.14,0,0,0,1.41,1.38,4.84,4.84,0,0,0,2.21.47,4.38,4.38,0,0,0,2.17-.51A3.43,3.43,0,0,0,139,77.93a5.33,5.33,0,0,0,.48-2.37V69h-4.19V62.9Z"/><path class="cls-2" d="M150.73,43.27h6.45v42.6h-6.45Zm3.08,0h15.56v6.18H153.81Zm0,18.37H167.9v6.15H153.81Zm0,18h15.56v6.18H153.81Z"/><path class="cls-2" d="M173.41,43.27h6.44v42.6h-6.44Zm4.19,36.47h6.62a2.93,2.93,0,0,0,2.3-.89,3.62,3.62,0,0,0,.8-2.53V52.82a3.62,3.62,0,0,0-.8-2.53,2.94,2.94,0,0,0-2.3-.9H177.6V43.27h6.91a10.77,10.77,0,0,1,5,1.08,7.44,7.44,0,0,1,3.18,3.15,10.58,10.58,0,0,1,1.1,5V76.64a10.46,10.46,0,0,1-1.11,5,7.45,7.45,0,0,1-3.2,3.16,10.59,10.59,0,0,1-5,1.09H177.6Z"/><path class="cls-2" d="M198.72,43.24h6.36V85.87h-6.36Zm2.93,18.49h7.79a4.62,4.62,0,0,0,2.08-.44A3.07,3.07,0,0,0,212.86,60a4.51,4.51,0,0,0,.48-2.06V53.41a4.83,4.83,0,0,0-.45-2.17,3.18,3.18,0,0,0-1.35-1.39,4.29,4.29,0,0,0-2.1-.49h-7.79V43.24H209a13.86,13.86,0,0,1,5.86,1.13,8.12,8.12,0,0,1,3.72,3.31,10.09,10.09,0,0,1,1.29,5.23v5a10.63,10.63,0,0,1-1.29,5.38,8.3,8.3,0,0,1-3.73,3.41A13.45,13.45,0,0,1,209,67.85h-7.32Zm6.62,4.8,5.95-1.35L221,85.87h-7Z"/><path class="cls-2" d="M229.6,85.08a8.58,8.58,0,0,1-3.68-3.55,11.43,11.43,0,0,1-1.27-5.59V53.2a11.51,11.51,0,0,1,1.27-5.61,8.45,8.45,0,0,1,3.68-3.54,14.4,14.4,0,0,1,11.6,0,8.45,8.45,0,0,1,3.68,3.54,11.51,11.51,0,0,1,1.27,5.61V75.94a11.43,11.43,0,0,1-1.27,5.59,8.58,8.58,0,0,1-3.68,3.55,14.29,14.29,0,0,1-11.6,0Zm8.11-5.63a3.41,3.41,0,0,0,1.47-1.51,5.17,5.17,0,0,0,.5-2.36V53.52a5.16,5.16,0,0,0-.5-2.35,3.33,3.33,0,0,0-1.47-1.5,5.49,5.49,0,0,0-4.62,0,3.33,3.33,0,0,0-1.47,1.5,5.16,5.16,0,0,0-.5,2.35V75.58a5.17,5.17,0,0,0,.5,2.36,3.41,3.41,0,0,0,1.47,1.51,5.3,5.3,0,0,0,4.62,0Z"/><path class="cls-2" d="M257.2,85.87h-6.45V43.27h6.45Z"/><path class="cls-2" d="M262.38,43.27h6.45v42.6h-6.45Zm4.19,36.47h6.62a2.91,2.91,0,0,0,2.3-.89,3.63,3.63,0,0,0,.81-2.53V52.82a3.63,3.63,0,0,0-.81-2.53,2.91,2.91,0,0,0-2.3-.9h-6.62V43.27h6.92a10.77,10.77,0,0,1,5,1.08,7.47,7.47,0,0,1,3.17,3.15,10.46,10.46,0,0,1,1.1,5V76.64a10.46,10.46,0,0,1-1.11,5,7.43,7.43,0,0,1-3.19,3.16,10.65,10.65,0,0,1-5,1.09h-6.89Z"/><rect class="cls-2" x="21.99" y="21.04" width="10.07" height="10.07" rx="1"/><rect class="cls-2" x="37.39" y="21.04" width="10.07" height="10.07" rx="1"/><rect class="cls-2" x="52.8" y="21.04" width="10.07" height="10.07" rx="1"/><rect class="cls-2" x="68.21" y="21.04" width="10.07" height="10.07" rx="1"/><rect class="cls-2" x="83.62" y="21.04" width="10.07" height="10.07" rx="1"/><rect class="cls-2" x="99.02" y="21.04" width="10.07" height="10.07" rx="1"/><rect class="cls-2" x="114.43" y="21.04" width="10.07" height="10.07" rx="1"/><rect class="cls-2" x="129.84" y="21.04" width="10.07" height="10.07" rx="1"/><rect class="cls-2" x="145.24" y="21.04" width="10.07" height="10.07" rx="1"/><rect class="cls-2" x="160.65" y="21.04" width="10.07" height="10.07" rx="1"/><rect class="cls-2" x="176.06" y="21.04" width="10.07" height="10.07" rx="1"/><rect class="cls-2" x="191.47" y="21.04" width="10.07" height="10.07" rx="1"/><rect class="cls-2" x="206.87" y="21.04" width="10.07" height="10.07" rx="1"/><rect class="cls-2" x="222.28" y="21.04" width="10.07" height="10.07" rx="1"/><rect class="cls-2" x="237.69" y="21.04" width="10.07" height="10.07" rx="1"/><rect class="cls-2" x="253.1" y="21.04" width="10.07" height="10.07" rx="1"/><rect class="cls-2" x="21.99" y="95.19" width="10.07" height="10.07" rx="1"/><rect class="cls-2" x="37.39" y="95.19" width="10.07" height="10.07" rx="1"/><rect class="cls-2" x="52.8" y="95.19" width="10.07" height="10.07" rx="1"/><rect class="cls-2" x="68.21" y="95.19" width="10.07" height="10.07" rx="1"/><rect class="cls-2" x="83.62" y="95.19" width="10.07" height="10.07" rx="1"/><rect class="cls-2" x="99.02" y="95.19" width="71.7" height="10.07" rx="1"/><rect class="cls-2" x="176.06" y="95.19" width="10.07" height="10.07" rx="1"/><rect class="cls-2" x="191.47" y="95.19" width="10.07" height="10.07" rx="1"/><rect class="cls-2" x="206.87" y="95.19" width="10.07" height="10.07" rx="1"/><rect class="cls-2" x="222.28" y="95.19" width="10.07" height="10.07" rx="1"/><rect class="cls-2" x="237.69" y="95.19" width="10.07" height="10.07" rx="1"/><rect class="cls-2" x="253.1" y="95.19" width="10.07" height="10.07" rx="1"/></svg>